<svg width="16" height="16" viewBox="0 0 16 16" fill="none" xmlns="http://www.w3.org/2000/svg">
<circle cx="8" cy="8" r="8" fill="#2C231E"/>
<path d="M7.81877 12.4117C7.14887 12.4117 6.59475 12.3414 6.15642 12.2008C5.72636 12.0602 5.38314 11.8824 5.12675 11.6674C4.87864 11.4441 4.70083 11.2001 4.59331 10.9354C4.49407 10.6625 4.44444 10.3937 4.44444 10.1291C4.44444 9.8727 4.50234 9.63699 4.61812 9.42196C4.74218 9.19866 4.90345 9.02085 5.10194 8.88852C5.3087 8.75619 5.54441 8.6859 5.80906 8.67763C6.08199 8.66108 6.36731 8.73138 6.66505 8.88852C6.49137 8.92987 6.35077 9.03739 6.24326 9.21107C6.14401 9.38475 6.08199 9.59151 6.05717 9.83135C6.03236 10.0629 6.04477 10.311 6.09439 10.5757C6.15228 10.8403 6.25153 11.0843 6.39213 11.3076C6.54099 11.5309 6.73535 11.717 6.97519 11.8659C7.2233 12.0147 7.52104 12.0892 7.8684 12.0892C8.22402 12.0892 8.53003 12.0437 8.78641 11.9527C9.04279 11.8617 9.24956 11.7418 9.40669 11.5929C9.5721 11.4441 9.69202 11.2787 9.76646 11.0967C9.84916 10.9148 9.89051 10.7328 9.89051 10.5509C9.89051 10.187 9.76646 9.88097 9.51834 9.63286C9.27023 9.38475 8.96009 9.16558 8.58792 8.97536C8.22402 8.78514 7.82291 8.60733 7.38458 8.44192C6.95451 8.27651 6.5534 8.08629 6.18123 7.87126C5.81733 7.65623 5.51133 7.40398 5.26321 7.11452C5.0151 6.82505 4.89105 6.46115 4.89105 6.02282C4.89105 5.51006 4.99443 5.10894 5.20119 4.81948C5.41622 4.53001 5.68087 4.31498 5.99515 4.17438C6.30942 4.02552 6.65264 3.93454 7.02481 3.90146C7.40525 3.86838 7.75674 3.85184 8.07929 3.85184C8.70784 3.85184 9.22888 3.918 9.6424 4.05033C10.0559 4.17438 10.3743 4.33152 10.5976 4.52174C10.8209 4.71196 10.9533 4.92286 10.9946 5.15443C11.036 5.37773 11.0029 5.58449 10.8954 5.77471C10.7879 5.96493 10.61 6.1262 10.3619 6.25853C10.1221 6.38258 9.82435 6.44461 9.46872 6.44461C9.55143 6.26266 9.58864 6.0435 9.58037 5.78711C9.58037 5.53073 9.51421 5.28675 9.38188 5.05518C9.24956 4.81534 9.05106 4.61272 8.78641 4.44731C8.52176 4.27363 8.17854 4.18679 7.75674 4.18679C7.54171 4.18679 7.35149 4.22814 7.18609 4.31085C7.02068 4.38528 6.88422 4.48039 6.7767 4.59617C6.66918 4.71196 6.58648 4.84429 6.52859 4.99315C6.47897 5.13375 6.45415 5.27021 6.45415 5.40254C6.45415 5.67546 6.52445 5.90704 6.66505 6.09726C6.81392 6.28748 7.00414 6.45288 7.23571 6.59348C7.46728 6.73408 7.73193 6.85813 8.02967 6.96565C8.3274 7.07316 8.63341 7.18068 8.94768 7.2882C9.26196 7.39571 9.56797 7.51563 9.8657 7.64796C10.1634 7.77201 10.4281 7.92502 10.6597 8.10697C10.8912 8.28065 11.0773 8.49154 11.2179 8.73965C11.3668 8.9795 11.4412 9.2731 11.4412 9.62045C11.4412 10.0422 11.3626 10.4268 11.2055 10.7742C11.0484 11.1133 10.8127 11.4069 10.4984 11.655C10.1924 11.8948 9.81194 12.0809 9.35707 12.2132C8.91047 12.3456 8.3977 12.4117 7.81877 12.4117Z" fill="#FCB716"/>
</svg>
