<svg width="439" height="249" viewBox="0 0 439 249" fill="none" xmlns="http://www.w3.org/2000/svg">
<path d="M43.2886 110C34.6946 110 27.5859 109.097 21.9626 107.29C16.4454 105.483 12.0423 103.198 8.75322 100.435C5.57023 97.5652 3.28909 94.43 1.90979 91.029C0.636598 87.5217 0 84.0676 0 80.6667C0 77.372 0.742697 74.343 2.22809 71.5797C3.81959 68.7101 5.88853 66.4251 8.43492 64.7246C11.0874 63.0242 14.1112 62.1208 17.5064 62.0145C21.0077 61.8019 24.6682 62.7053 28.4877 64.7246C26.2597 65.256 24.456 66.6377 23.0767 68.8696C21.8035 71.1014 21.0077 73.7585 20.6894 76.8406C20.3711 79.8164 20.5303 83.0048 21.1669 86.4058C21.9096 89.8068 23.1828 92.942 24.9865 95.8116C26.8963 98.6812 29.3896 101.072 32.4665 102.986C35.6495 104.899 39.4691 105.855 43.9252 105.855C48.4875 105.855 52.4132 105.271 55.7023 104.101C58.9914 102.932 61.6439 101.391 63.6598 99.4783C65.7818 97.5652 67.3202 95.4396 68.2751 93.1014C69.3361 90.7633 69.8666 88.4251 69.8666 86.087C69.8666 81.4106 68.2751 77.4783 65.0921 74.2899C61.9091 71.1014 57.9304 68.285 53.1559 65.8406C48.4875 63.3961 43.3417 61.1111 37.7184 58.9855C32.2012 56.8599 27.0554 54.4155 22.2809 51.6522C17.6125 48.8889 13.6869 45.6473 10.5039 41.9275C7.32087 38.2077 5.72938 33.5314 5.72938 27.8986C5.72938 21.3092 7.05562 16.1546 9.70811 12.4348C12.4667 8.71498 15.8619 5.9517 19.8937 4.14493C23.9255 2.23189 28.3286 1.0628 33.1031 0.637682C37.9837 0.212561 42.4929 0 46.6308 0C54.6944 0 61.3786 0.850243 66.6836 2.55073C71.9886 4.14493 76.0734 6.16425 78.9381 8.6087C81.8028 11.0531 83.5004 13.7633 84.0309 16.7391C84.5614 19.6087 84.137 22.2657 82.7577 24.7101C81.3784 27.1546 79.0973 29.2271 75.9143 30.9275C72.8374 32.5217 69.0178 33.3188 64.4555 33.3188C65.5165 30.9807 65.994 28.1643 65.8879 24.8696C65.8879 21.5749 65.0391 18.4396 63.3415 15.4638C61.6439 12.3816 59.0975 9.77778 55.7023 7.65218C52.3071 5.42029 47.904 4.30435 42.4929 4.30435C39.7343 4.30435 37.294 4.83575 35.172 5.89855C33.05 6.85507 31.2994 8.07729 29.9201 9.56522C28.5408 11.0531 27.4798 12.7536 26.7371 14.6667C26.1005 16.4734 25.7822 18.2271 25.7822 19.9275C25.7822 23.4348 26.6841 26.4106 28.4877 28.8551C30.3975 31.2995 32.8378 33.4251 35.8086 35.2319C38.7794 37.0387 42.1746 38.6329 45.9942 40.0145C49.8138 41.3961 53.7395 42.7778 57.7712 44.1594C61.803 45.5411 65.7287 47.0821 69.5483 48.7826C73.3679 50.3768 76.7631 52.343 79.7339 54.6812C82.7047 56.913 85.0919 59.6232 86.8956 62.8116C88.8054 65.8937 89.7603 69.6667 89.7603 74.1304C89.7603 79.5507 88.7523 84.4928 86.7364 88.9565C84.7205 93.314 81.6967 97.087 77.6649 100.275C73.7392 103.357 68.8587 105.749 63.0232 107.449C57.2938 109.15 50.7156 110 43.2886 110Z" fill="#FCB716" fill-opacity="0.25"/>
<path d="M135.996 108.565H93.6619V107.29C96.7388 107.29 99.3913 106.174 101.619 103.942C103.847 101.71 104.962 99 104.962 95.8116V14.1884C104.962 11.1063 103.847 8.44928 101.619 6.2174C99.3913 3.98551 96.7388 2.86957 93.6619 2.86957V1.43478H135.996V2.86957C132.919 2.86957 130.266 3.98551 128.038 6.2174C125.81 8.44928 124.696 11.1063 124.696 14.1884V95.971C124.696 99.0531 125.81 101.71 128.038 103.942C130.266 106.174 132.919 107.29 135.996 107.29V108.565Z" fill="#FCB716" fill-opacity="0.25"/>
<path d="M203.374 107.29C206.451 107.29 208.414 106.174 209.263 103.942C210.112 101.71 209.581 99 207.671 95.8116L186.345 61.6957L165.019 95.0145C162.897 98.4155 162.208 101.338 162.95 103.783C163.799 106.121 165.921 107.29 169.316 107.29V108.565H139.874V107.29C141.571 107.29 143.375 106.971 145.285 106.333C147.301 105.696 149.264 104.845 151.173 103.783C153.083 102.614 154.834 101.285 156.425 99.7971C158.123 98.3092 159.502 96.715 160.563 95.0145L184.276 58.1884L156.903 14.1884C155.948 12.5942 154.675 11.1594 153.083 9.88406C151.598 8.50242 149.953 7.2802 148.149 6.2174C146.452 5.1546 144.648 4.35749 142.738 3.82609C140.935 3.18841 139.237 2.86957 137.646 2.86957V1.43478H182.207V2.86957C179.131 2.86957 177.168 3.98551 176.319 6.2174C175.47 8.44928 176.001 11.1063 177.91 14.1884L194.939 41.6087L211.809 14.9855C213.931 11.5845 214.568 8.71498 213.719 6.37681C212.976 4.03865 210.907 2.86957 207.512 2.86957V1.43478H237.114V2.86957C235.416 2.86957 233.56 3.18841 231.544 3.82609C229.528 4.46377 227.565 5.36715 225.655 6.53623C223.745 7.59903 221.942 8.8744 220.244 10.3623C218.653 11.744 217.326 13.285 216.265 14.9855L197.008 44.9565L228.679 95.971C229.846 97.4589 231.225 98.8937 232.817 100.275C234.515 101.657 236.265 102.879 238.069 103.942C239.873 104.899 241.676 105.696 243.48 106.333C245.284 106.971 246.981 107.29 248.573 107.29H248.732V108.565H203.374V107.29Z" fill="#FCB716" fill-opacity="0.25"/>
<path d="M246.692 35.0725L242.554 34.913L249.079 1.43478H331.518L338.043 34.913L333.905 35.0725L333.587 33.4783C332.632 29.4396 331.094 25.7198 328.972 22.3188C326.956 18.9179 324.463 15.9952 321.492 13.5507C318.627 11 315.338 8.92754 311.625 7.33333C308.017 5.73913 304.198 4.78261 300.166 4.46377L300.325 95.8116C300.325 99 301.386 101.71 303.508 103.942C305.736 106.174 308.442 107.29 311.625 107.29V108.565H269.132V107.29C272.209 107.29 274.861 106.174 277.089 103.942C279.317 101.71 280.431 99 280.431 95.8116V4.46377C276.399 4.78261 272.527 5.73913 268.813 7.33333C265.206 8.82126 261.917 10.8406 258.946 13.3913C256.081 15.942 253.588 18.9179 251.466 22.3188C249.45 25.7198 247.965 29.4396 247.01 33.4783L246.692 35.0725Z" fill="#FCB716" fill-opacity="0.25"/>
<path d="M382.184 108.565H339.691V107.29C342.768 107.29 345.42 106.174 347.648 103.942C349.876 101.71 350.99 99 350.99 95.8116V14.1884C350.99 11.1063 349.876 8.44928 347.648 6.2174C345.42 3.98551 342.768 2.86957 339.691 2.86957V1.43478H382.184V2.86957H382.025C378.948 2.86957 376.295 3.98551 374.067 6.2174C371.839 8.44928 370.725 11.1063 370.725 14.1884V43.5217H407.807V14.1884C407.807 11.1063 406.693 8.44928 404.465 6.2174C402.343 3.98551 399.69 2.86957 396.507 2.86957V1.43478H439V2.86957C435.817 2.86957 433.112 3.98551 430.883 6.2174C428.761 8.44928 427.7 11.1063 427.7 14.1884V95.971C427.7 99.0531 428.814 101.71 431.043 103.942C433.271 106.174 435.923 107.29 439 107.29V108.565H396.507V107.29C399.69 107.29 402.343 106.174 404.465 103.942C406.693 101.71 407.807 99 407.807 95.8116V46.0725H370.725V95.971C370.725 99.0531 371.839 101.71 374.067 103.942C376.295 106.174 379.001 107.29 382.184 107.29V108.565Z" fill="#FCB716" fill-opacity="0.25"/>
<path d="M43.2886 249C34.6946 249 27.5859 248.097 21.9626 246.29C16.4454 244.483 12.0423 242.198 8.75322 239.435C5.57023 236.565 3.28909 233.43 1.90979 230.029C0.636598 226.522 0 223.068 0 219.667C0 216.372 0.742697 213.343 2.22809 210.58C3.81959 207.71 5.88853 205.425 8.43492 203.725C11.0874 202.024 14.1112 201.121 17.5064 201.014C21.0077 200.802 24.6682 201.705 28.4877 203.725C26.2597 204.256 24.456 205.638 23.0767 207.87C21.8035 210.101 21.0077 212.758 20.6894 215.841C20.3711 218.816 20.5303 222.005 21.1669 225.406C21.9096 228.807 23.1828 231.942 24.9865 234.812C26.8963 237.681 29.3896 240.072 32.4665 241.986C35.6495 243.899 39.4691 244.855 43.9252 244.855C48.4875 244.855 52.4132 244.271 55.7023 243.101C58.9914 241.932 61.6439 240.391 63.6598 238.478C65.7818 236.565 67.3202 234.44 68.2751 232.101C69.3361 229.763 69.8666 227.425 69.8666 225.087C69.8666 220.411 68.2751 216.478 65.0921 213.29C61.9091 210.101 57.9304 207.285 53.1559 204.841C48.4875 202.396 43.3417 200.111 37.7184 197.986C32.2012 195.86 27.0554 193.415 22.2809 190.652C17.6125 187.889 13.6869 184.647 10.5039 180.928C7.32087 177.208 5.72938 172.531 5.72938 166.899C5.72938 160.309 7.05562 155.155 9.70811 151.435C12.4667 147.715 15.8619 144.952 19.8937 143.145C23.9255 141.232 28.3286 140.063 33.1031 139.638C37.9837 139.213 42.4929 139 46.6308 139C54.6944 139 61.3786 139.85 66.6836 141.551C71.9886 143.145 76.0734 145.164 78.9381 147.609C81.8028 150.053 83.5004 152.763 84.0309 155.739C84.5614 158.609 84.137 161.266 82.7577 163.71C81.3784 166.155 79.0973 168.227 75.9143 169.928C72.8374 171.522 69.0178 172.319 64.4555 172.319C65.5165 169.981 65.994 167.164 65.8879 163.87C65.8879 160.575 65.0391 157.44 63.3415 154.464C61.6439 151.382 59.0975 148.778 55.7023 146.652C52.3071 144.42 47.904 143.304 42.4929 143.304C39.7343 143.304 37.294 143.836 35.172 144.899C33.05 145.855 31.2994 147.077 29.9201 148.565C28.5408 150.053 27.4798 151.754 26.7371 153.667C26.1005 155.473 25.7822 157.227 25.7822 158.928C25.7822 162.435 26.6841 165.411 28.4877 167.855C30.3975 170.3 32.8378 172.425 35.8086 174.232C38.7794 176.039 42.1746 177.633 45.9942 179.014C49.8138 180.396 53.7395 181.778 57.7712 183.159C61.803 184.541 65.7287 186.082 69.5483 187.783C73.3679 189.377 76.7631 191.343 79.7339 193.681C82.7047 195.913 85.0919 198.623 86.8956 201.812C88.8054 204.894 89.7603 208.667 89.7603 213.13C89.7603 218.551 88.7523 223.493 86.7364 227.957C84.7205 232.314 81.6967 236.087 77.6649 239.275C73.7392 242.357 68.8587 244.749 63.0232 246.449C57.2938 248.15 50.7156 249 43.2886 249Z" fill="#FCB716" fill-opacity="0.25"/>
<path d="M135.996 247.565H93.6619V246.29C96.7388 246.29 99.3913 245.174 101.619 242.942C103.847 240.71 104.962 238 104.962 234.812V153.188C104.962 150.106 103.847 147.449 101.619 145.217C99.3913 142.986 96.7388 141.87 93.6619 141.87V140.435H135.996V141.87C132.919 141.87 130.266 142.986 128.038 145.217C125.81 147.449 124.696 150.106 124.696 153.188V234.971C124.696 238.053 125.81 240.71 128.038 242.942C130.266 245.174 132.919 246.29 135.996 246.29V247.565Z" fill="#FCB716" fill-opacity="0.25"/>
<path d="M203.374 246.29C206.451 246.29 208.414 245.174 209.263 242.942C210.112 240.71 209.581 238 207.671 234.812L186.345 200.696L165.019 234.014C162.897 237.415 162.208 240.338 162.95 242.783C163.799 245.121 165.921 246.29 169.316 246.29V247.565H139.874V246.29C141.571 246.29 143.375 245.971 145.285 245.333C147.301 244.696 149.264 243.845 151.173 242.783C153.083 241.614 154.834 240.285 156.425 238.797C158.123 237.309 159.502 235.715 160.563 234.014L184.276 197.188L156.903 153.188C155.948 151.594 154.675 150.159 153.083 148.884C151.598 147.502 149.953 146.28 148.149 145.217C146.452 144.155 144.648 143.357 142.738 142.826C140.935 142.188 139.237 141.87 137.646 141.87V140.435H182.207V141.87C179.131 141.87 177.168 142.986 176.319 145.217C175.47 147.449 176.001 150.106 177.91 153.188L194.939 180.609L211.809 153.986C213.931 150.585 214.568 147.715 213.719 145.377C212.976 143.039 210.907 141.87 207.512 141.87V140.435H237.114V141.87C235.416 141.87 233.56 142.188 231.544 142.826C229.528 143.464 227.565 144.367 225.655 145.536C223.745 146.599 221.942 147.874 220.244 149.362C218.653 150.744 217.326 152.285 216.265 153.986L197.008 183.957L228.679 234.971C229.846 236.459 231.225 237.894 232.817 239.275C234.515 240.657 236.265 241.879 238.069 242.942C239.873 243.899 241.676 244.696 243.48 245.333C245.284 245.971 246.981 246.29 248.573 246.29H248.732V247.565H203.374V246.29Z" fill="#FCB716" fill-opacity="0.25"/>
<path d="M246.692 174.072L242.554 173.913L249.079 140.435H331.518L338.043 173.913L333.905 174.072L333.587 172.478C332.632 168.44 331.094 164.72 328.972 161.319C326.956 157.918 324.463 154.995 321.492 152.551C318.627 150 315.338 147.928 311.625 146.333C308.017 144.739 304.198 143.783 300.166 143.464L300.325 234.812C300.325 238 301.386 240.71 303.508 242.942C305.736 245.174 308.442 246.29 311.625 246.29V247.565H269.132V246.29C272.209 246.29 274.861 245.174 277.089 242.942C279.317 240.71 280.431 238 280.431 234.812V143.464C276.399 143.783 272.527 144.739 268.813 146.333C265.206 147.821 261.917 149.841 258.946 152.391C256.081 154.942 253.588 157.918 251.466 161.319C249.45 164.72 247.965 168.44 247.01 172.478L246.692 174.072Z" fill="#FCB716" fill-opacity="0.25"/>
<path d="M382.184 247.565H339.691V246.29C342.768 246.29 345.42 245.174 347.648 242.942C349.876 240.71 350.99 238 350.99 234.812V153.188C350.99 150.106 349.876 147.449 347.648 145.217C345.42 142.986 342.768 141.87 339.691 141.87V140.435H382.184V141.87H382.025C378.948 141.87 376.295 142.986 374.067 145.217C371.839 147.449 370.725 150.106 370.725 153.188V182.522H407.807V153.188C407.807 150.106 406.693 147.449 404.465 145.217C402.343 142.986 399.69 141.87 396.507 141.87V140.435H439V141.87C435.817 141.87 433.112 142.986 430.883 145.217C428.761 147.449 427.7 150.106 427.7 153.188V234.971C427.7 238.053 428.814 240.71 431.043 242.942C433.271 245.174 435.923 246.29 439 246.29V247.565H396.507V246.29C399.69 246.29 402.343 245.174 404.465 242.942C406.693 240.71 407.807 238 407.807 234.812V185.072H370.725V234.971C370.725 238.053 371.839 240.71 374.067 242.942C376.295 245.174 379.001 246.29 382.184 246.29V247.565Z" fill="#FCB716" fill-opacity="0.25"/>
<path d="M43.2886 180C34.6946 180 27.5859 179.097 21.9626 177.29C16.4454 175.483 12.0423 173.198 8.75322 170.435C5.57023 167.565 3.28909 164.43 1.90979 161.029C0.636598 157.522 0 154.068 0 150.667C0 147.372 0.742697 144.343 2.22809 141.58C3.81959 138.71 5.88853 136.425 8.43492 134.725C11.0874 133.024 14.1112 132.121 17.5064 132.014C21.0077 131.802 24.6682 132.705 28.4877 134.725C26.2597 135.256 24.456 136.638 23.0767 138.87C21.8035 141.101 21.0077 143.758 20.6894 146.841C20.3711 149.816 20.5303 153.005 21.1669 156.406C21.9096 159.807 23.1828 162.942 24.9865 165.812C26.8963 168.681 29.3896 171.072 32.4665 172.986C35.6495 174.899 39.4691 175.855 43.9252 175.855C48.4875 175.855 52.4132 175.271 55.7023 174.101C58.9914 172.932 61.6439 171.391 63.6598 169.478C65.7818 167.565 67.3202 165.44 68.2751 163.101C69.3361 160.763 69.8666 158.425 69.8666 156.087C69.8666 151.411 68.2751 147.478 65.0921 144.29C61.9091 141.101 57.9304 138.285 53.1559 135.841C48.4875 133.396 43.3417 131.111 37.7184 128.986C32.2012 126.86 27.0554 124.415 22.2809 121.652C17.6125 118.889 13.6869 115.647 10.5039 111.928C7.32087 108.208 5.72938 103.531 5.72938 97.8986C5.72938 91.3092 7.05562 86.1546 9.70811 82.4348C12.4667 78.715 15.8619 75.9517 19.8937 74.1449C23.9255 72.2319 28.3286 71.0628 33.1031 70.6377C37.9837 70.2126 42.4929 70 46.6308 70C54.6944 70 61.3786 70.8502 66.6836 72.5507C71.9886 74.1449 76.0734 76.1643 78.9381 78.6087C81.8028 81.0531 83.5004 83.7633 84.0309 86.7391C84.5614 89.6087 84.137 92.2657 82.7577 94.7101C81.3784 97.1546 79.0973 99.2271 75.9143 100.928C72.8374 102.522 69.0178 103.319 64.4555 103.319C65.5165 100.981 65.994 98.1643 65.8879 94.8696C65.8879 91.5749 65.0391 88.4396 63.3415 85.4638C61.6439 82.3816 59.0975 79.7778 55.7023 77.6522C52.3071 75.4203 47.904 74.3043 42.4929 74.3043C39.7343 74.3043 37.294 74.8357 35.172 75.8986C33.05 76.8551 31.2994 78.0773 29.9201 79.5652C28.5408 81.0531 27.4798 82.7536 26.7371 84.6667C26.1005 86.4734 25.7822 88.2271 25.7822 89.9275C25.7822 93.4348 26.6841 96.4106 28.4877 98.8551C30.3975 101.3 32.8378 103.425 35.8086 105.232C38.7794 107.039 42.1746 108.633 45.9942 110.014C49.8138 111.396 53.7395 112.778 57.7712 114.159C61.803 115.541 65.7287 117.082 69.5483 118.783C73.3679 120.377 76.7631 122.343 79.7339 124.681C82.7047 126.913 85.0919 129.623 86.8956 132.812C88.8054 135.894 89.7603 139.667 89.7603 144.13C89.7603 149.551 88.7523 154.493 86.7364 158.957C84.7205 163.314 81.6967 167.087 77.6649 170.275C73.7392 173.357 68.8587 175.749 63.0232 177.449C57.2938 179.15 50.7156 180 43.2886 180Z" fill="#FCB716"/>
<path d="M135.996 178.565H93.6619V177.29C96.7388 177.29 99.3913 176.174 101.619 173.942C103.847 171.71 104.962 169 104.962 165.812V84.1884C104.962 81.1063 103.847 78.4493 101.619 76.2174C99.3913 73.9855 96.7388 72.8696 93.6619 72.8696V71.4348H135.996V72.8696C132.919 72.8696 130.266 73.9855 128.038 76.2174C125.81 78.4493 124.696 81.1063 124.696 84.1884V165.971C124.696 169.053 125.81 171.71 128.038 173.942C130.266 176.174 132.919 177.29 135.996 177.29V178.565Z" fill="#FCB716"/>
<path d="M203.374 177.29C206.451 177.29 208.414 176.174 209.263 173.942C210.112 171.71 209.581 169 207.671 165.812L186.345 131.696L165.019 165.014C162.897 168.415 162.208 171.338 162.95 173.783C163.799 176.121 165.921 177.29 169.316 177.29V178.565H139.874V177.29C141.571 177.29 143.375 176.971 145.285 176.333C147.301 175.696 149.264 174.845 151.173 173.783C153.083 172.614 154.834 171.285 156.425 169.797C158.123 168.309 159.502 166.715 160.563 165.014L184.276 128.188L156.903 84.1884C155.948 82.5942 154.675 81.1594 153.083 79.8841C151.598 78.5024 149.953 77.2802 148.149 76.2174C146.452 75.1546 144.648 74.3575 142.738 73.8261C140.935 73.1884 139.237 72.8696 137.646 72.8696V71.4348H182.207V72.8696C179.131 72.8696 177.168 73.9855 176.319 76.2174C175.47 78.4493 176.001 81.1063 177.91 84.1884L194.939 111.609L211.809 84.9855C213.931 81.5845 214.568 78.715 213.719 76.3768C212.976 74.0386 210.907 72.8696 207.512 72.8696V71.4348H237.114V72.8696C235.416 72.8696 233.56 73.1884 231.544 73.8261C229.528 74.4638 227.565 75.3672 225.655 76.5362C223.745 77.599 221.942 78.8744 220.244 80.3623C218.653 81.744 217.326 83.285 216.265 84.9855L197.008 114.957L228.679 165.971C229.846 167.459 231.225 168.894 232.817 170.275C234.515 171.657 236.265 172.879 238.069 173.942C239.873 174.899 241.676 175.696 243.48 176.333C245.284 176.971 246.981 177.29 248.573 177.29H248.732V178.565H203.374V177.29Z" fill="#FCB716"/>
<path d="M246.692 105.072L242.554 104.913L249.079 71.4348H331.518L338.043 104.913L333.905 105.072L333.587 103.478C332.632 99.4396 331.094 95.7198 328.972 92.3188C326.956 88.9179 324.463 85.9952 321.492 83.5507C318.627 81 315.338 78.9275 311.625 77.3333C308.017 75.7391 304.198 74.7826 300.166 74.4638L300.325 165.812C300.325 169 301.386 171.71 303.508 173.942C305.736 176.174 308.442 177.29 311.625 177.29V178.565H269.132V177.29C272.209 177.29 274.861 176.174 277.089 173.942C279.317 171.71 280.431 169 280.431 165.812V74.4638C276.399 74.7826 272.527 75.7391 268.813 77.3333C265.206 78.8213 261.917 80.8406 258.946 83.3913C256.081 85.942 253.588 88.9179 251.466 92.3188C249.45 95.7198 247.965 99.4396 247.01 103.478L246.692 105.072Z" fill="#FCB716"/>
<path d="M382.184 178.565H339.691V177.29C342.768 177.29 345.42 176.174 347.648 173.942C349.876 171.71 350.99 169 350.99 165.812V84.1884C350.99 81.1063 349.876 78.4493 347.648 76.2174C345.42 73.9855 342.768 72.8696 339.691 72.8696V71.4348H382.184V72.8696H382.025C378.948 72.8696 376.295 73.9855 374.067 76.2174C371.839 78.4493 370.725 81.1063 370.725 84.1884V113.522H407.807V84.1884C407.807 81.1063 406.693 78.4493 404.465 76.2174C402.343 73.9855 399.69 72.8696 396.507 72.8696V71.4348H439V72.8696C435.817 72.8696 433.112 73.9855 430.883 76.2174C428.761 78.4493 427.7 81.1063 427.7 84.1884V165.971C427.7 169.053 428.814 171.71 431.043 173.942C433.271 176.174 435.923 177.29 439 177.29V178.565H396.507V177.29C399.69 177.29 402.343 176.174 404.465 173.942C406.693 171.71 407.807 169 407.807 165.812V116.072H370.725V165.971C370.725 169.053 371.839 171.71 374.067 173.942C376.295 176.174 379.001 177.29 382.184 177.29V178.565Z" fill="#FCB716"/>
<path d="M205.756 49.172C205.756 49.8253 205.877 50.2827 206.12 50.544C206.381 50.7867 206.689 50.8987 207.044 50.88C207.398 50.8613 207.744 50.74 208.08 50.516C208.434 50.2733 208.714 49.984 208.92 49.648L209.116 49.816C208.593 50.768 207.958 51.44 207.212 51.832C206.465 52.2053 205.737 52.3453 205.028 52.252C204.337 52.1587 203.74 51.8507 203.236 51.328C202.75 50.7867 202.508 50.096 202.508 49.256V39.904H200.492V39.288H201.304C201.528 39.288 201.864 39.1853 202.312 38.98C202.76 38.756 203.208 38.4667 203.656 38.112C204.104 37.7573 204.496 37.356 204.832 36.908C205.168 36.4413 205.336 35.9653 205.336 35.48H205.756V39.288H209.004V39.904H205.756V49.172ZM223.06 49.788C223.06 50.3293 223.256 50.796 223.648 51.188C224.04 51.58 224.506 51.776 225.048 51.776V52H217.824V51.776C218.365 51.776 218.832 51.58 219.224 51.188C219.616 50.796 219.812 50.3293 219.812 49.788V42.004C219.812 41.3133 219.653 40.828 219.336 40.548C219.037 40.2493 218.645 40.128 218.16 40.184C217.693 40.24 217.18 40.464 216.62 40.856C216.078 41.2293 215.556 41.724 215.052 42.34V49.788C215.052 50.3293 215.248 50.796 215.64 51.188C216.032 51.58 216.498 51.776 217.04 51.776V52H209.816V51.776C210.357 51.776 210.824 51.58 211.216 51.188C211.608 50.796 211.804 50.3293 211.804 49.788V35.928C211.804 35.3867 211.608 34.92 211.216 34.528C210.824 34.136 210.357 33.94 209.816 33.94V33.688C210.488 33.5013 211.141 33.3053 211.776 33.1C212.317 32.932 212.886 32.7547 213.484 32.568C214.1 32.3627 214.622 32.1667 215.052 31.98V41.78C215.892 40.9027 216.778 40.2493 217.712 39.82C218.645 39.372 219.504 39.1667 220.288 39.204C221.09 39.2413 221.753 39.5307 222.276 40.072C222.798 40.6133 223.06 41.4253 223.06 42.508V49.788ZM237.08 42.9C237.08 43.6467 236.949 44.2907 236.688 44.832C236.445 45.3733 236.109 45.8307 235.68 46.204C235.269 46.5587 234.784 46.8387 234.224 47.044C233.682 47.2307 233.113 47.3427 232.516 47.38C231.937 47.3987 231.349 47.352 230.752 47.24C230.173 47.128 229.632 46.9507 229.128 46.708C229.445 47.324 229.837 47.884 230.304 48.388C230.789 48.8733 231.349 49.2467 231.984 49.508C232.637 49.7693 233.365 49.8907 234.168 49.872C234.97 49.8347 235.848 49.6013 236.8 49.172L236.996 49.368C236.697 49.9093 236.314 50.3947 235.848 50.824C235.437 51.1973 234.914 51.5333 234.28 51.832C233.664 52.112 232.898 52.252 231.984 52.252C230.864 52.252 229.912 52.0467 229.128 51.636C228.344 51.2067 227.7 50.6747 227.196 50.04C226.692 49.3867 226.318 48.6773 226.076 47.912C225.852 47.1467 225.74 46.4187 225.74 45.728C225.74 44.888 225.87 44.076 226.132 43.292C226.393 42.508 226.785 41.8173 227.308 41.22C227.849 40.604 228.521 40.1093 229.324 39.736C230.145 39.3627 231.116 39.176 232.236 39.176C233.038 39.176 233.738 39.2973 234.336 39.54C234.933 39.764 235.437 40.0627 235.848 40.436C236.258 40.7907 236.566 41.192 236.772 41.64C236.977 42.0693 237.08 42.4893 237.08 42.9ZM228.764 45.868C229.081 46.036 229.473 46.1947 229.94 46.344C230.406 46.4747 230.882 46.54 231.368 46.54C232.002 46.54 232.516 46.3813 232.908 46.064C233.3 45.728 233.58 45.3173 233.748 44.832C233.916 44.3467 233.972 43.8147 233.916 43.236C233.86 42.6573 233.701 42.1253 233.44 41.64C233.197 41.1547 232.842 40.7533 232.376 40.436C231.928 40.1 231.396 39.932 230.78 39.932C230.164 39.932 229.66 40.1187 229.268 40.492C228.894 40.8467 228.624 41.3133 228.456 41.892C228.288 42.452 228.232 43.0867 228.288 43.796C228.344 44.4867 228.502 45.1773 228.764 45.868Z" fill="#FCB716"/>
<path d="M192.287 211.308C191.26 211.308 190.392 211.224 189.683 211.056C188.974 210.888 188.395 210.655 187.947 210.356C187.499 210.039 187.172 209.665 186.967 209.236C186.78 208.807 186.687 208.331 186.687 207.808C186.687 207.416 186.799 207.052 187.023 206.716C187.266 206.38 187.564 206.119 187.919 205.932C188.292 205.727 188.703 205.615 189.151 205.596C189.618 205.577 190.075 205.689 190.523 205.932C190.131 206.025 189.851 206.333 189.683 206.856C189.534 207.36 189.515 207.911 189.627 208.508C189.758 209.087 190.038 209.619 190.467 210.104C190.915 210.571 191.54 210.804 192.343 210.804C192.903 210.804 193.342 210.739 193.659 210.608C193.995 210.459 194.256 210.272 194.443 210.048C194.63 209.824 194.751 209.572 194.807 209.292C194.863 209.012 194.891 208.732 194.891 208.452C194.891 207.892 194.714 207.425 194.359 207.052C194.004 206.66 193.556 206.315 193.015 206.016C192.474 205.699 191.886 205.4 191.251 205.12C190.635 204.84 190.056 204.532 189.515 204.196C188.974 203.841 188.526 203.44 188.171 202.992C187.816 202.525 187.639 201.956 187.639 201.284C187.639 200.593 187.807 200.052 188.143 199.66C188.479 199.249 188.899 198.941 189.403 198.736C189.907 198.512 190.448 198.372 191.027 198.316C191.624 198.241 192.175 198.204 192.679 198.204C192.044 197.756 191.624 197.177 191.419 196.468C191.232 195.74 191.307 195.031 191.643 194.34C191.979 193.649 192.614 193.052 193.547 192.548C194.48 192.044 195.759 191.792 197.383 191.792C198.82 191.792 199.996 191.951 200.911 192.268C201.844 192.585 202.544 192.987 203.011 193.472C203.478 193.957 203.739 194.48 203.795 195.04C203.87 195.6 203.767 196.123 203.487 196.608C203.226 197.093 202.806 197.495 202.227 197.812C201.648 198.129 200.967 198.288 200.183 198.288H206.539V198.904H203.263V208.172C203.263 208.825 203.394 209.283 203.655 209.544C203.916 209.787 204.215 209.899 204.551 209.88C204.906 209.861 205.26 209.74 205.615 209.516C205.97 209.273 206.25 208.984 206.455 208.648L206.623 208.816C206.1 209.768 205.466 210.44 204.719 210.832C203.972 211.205 203.244 211.345 202.535 211.252C201.844 211.159 201.247 210.851 200.743 210.328C200.258 209.787 200.015 209.096 200.015 208.256V198.904H197.999V198.288C198.652 198.288 199.212 198.139 199.679 197.84C200.164 197.541 200.528 197.177 200.771 196.748C201.014 196.3 201.135 195.815 201.135 195.292C201.135 194.769 200.986 194.293 200.687 193.864C200.407 193.416 199.968 193.043 199.371 192.744C198.792 192.445 198.036 192.296 197.103 192.296C196.114 192.296 195.283 192.427 194.611 192.688C193.939 192.931 193.407 193.248 193.015 193.64C192.642 194.032 192.399 194.461 192.287 194.928C192.175 195.395 192.175 195.852 192.287 196.3C192.399 196.748 192.604 197.159 192.903 197.532C193.22 197.887 193.622 198.148 194.107 198.316C194.872 198.465 195.488 198.671 195.955 198.932C196.422 199.193 196.758 199.464 196.963 199.744C197.168 200.024 197.252 200.313 197.215 200.612C197.196 200.892 197.084 201.153 196.879 201.396C196.674 201.62 196.384 201.807 196.011 201.956C195.656 202.105 195.255 202.18 194.807 202.18C194.938 201.9 194.994 201.564 194.975 201.172C194.956 200.78 194.844 200.407 194.639 200.052C194.452 199.679 194.172 199.361 193.799 199.1C193.444 198.839 192.996 198.708 192.455 198.708C192.026 198.708 191.634 198.848 191.279 199.128C190.943 199.389 190.775 199.875 190.775 200.584C190.775 201.013 190.952 201.387 191.307 201.704C191.662 202.003 192.11 202.283 192.651 202.544C193.192 202.805 193.771 203.067 194.387 203.328C195.003 203.589 195.582 203.888 196.123 204.224C196.664 204.56 197.112 204.952 197.467 205.4C197.822 205.848 197.999 206.389 197.999 207.024C197.999 208.312 197.495 209.348 196.487 210.132C195.498 210.916 194.098 211.308 192.287 211.308ZM223.898 211H216.674V210.776C217.215 210.776 217.682 210.58 218.074 210.188C218.466 209.796 218.662 209.32 218.662 208.76V202.124C218.662 201.583 218.466 201.116 218.074 200.724C217.682 200.332 217.215 200.136 216.674 200.136V199.884C217.346 199.697 217.999 199.501 218.634 199.296C219.175 199.128 219.744 198.951 220.342 198.764C220.958 198.559 221.48 198.372 221.91 198.204V208.788C221.91 209.329 222.106 209.796 222.498 210.188C222.89 210.58 223.356 210.776 223.898 210.776V211ZM212.558 208.788C212.558 209.329 212.754 209.796 213.146 210.188C213.538 210.58 214.004 210.776 214.546 210.776V211H207.322V210.776C207.863 210.776 208.33 210.58 208.722 210.188C209.114 209.796 209.31 209.32 209.31 208.76V202.124C209.31 201.583 209.114 201.116 208.722 200.724C208.33 200.332 207.863 200.136 207.322 200.136V199.884C207.994 199.697 208.647 199.501 209.282 199.296C209.823 199.128 210.392 198.951 210.99 198.764C211.606 198.559 212.128 198.372 212.558 198.204V204.364C213.043 202.217 213.64 200.285 214.35 198.568C214.648 197.84 214.984 197.131 215.358 196.44C215.731 195.749 216.142 195.133 216.59 194.592C217.038 194.051 217.523 193.612 218.046 193.276C218.587 192.94 219.156 192.772 219.754 192.772C220.463 192.772 220.986 192.949 221.322 193.304C221.658 193.64 221.844 194.041 221.882 194.508C221.919 194.975 221.835 195.451 221.63 195.936C221.424 196.403 221.144 196.776 220.79 197.056C220.659 196.739 220.482 196.477 220.258 196.272C220.052 196.085 219.782 195.945 219.446 195.852C219.11 195.74 218.69 195.74 218.186 195.852C217.738 195.964 217.318 196.207 216.926 196.58C216.534 196.935 216.16 197.373 215.806 197.896C215.451 198.419 215.124 198.997 214.826 199.632C214.546 200.248 214.284 200.873 214.042 201.508C213.463 203.001 212.968 204.672 212.558 206.52V208.788ZM237.409 208.788C237.409 209.329 237.605 209.796 237.997 210.188C238.389 210.58 238.856 210.776 239.397 210.776V211H232.173V210.776C232.715 210.776 233.181 210.58 233.573 210.188C233.965 209.796 234.161 209.329 234.161 208.788V201.004C234.161 200.313 234.003 199.828 233.685 199.548C233.387 199.249 232.995 199.128 232.509 199.184C232.043 199.24 231.529 199.464 230.969 199.856C230.428 200.229 229.905 200.724 229.401 201.34V208.788C229.401 209.329 229.597 209.796 229.989 210.188C230.381 210.58 230.848 210.776 231.389 210.776V211H224.165V210.776C224.707 210.776 225.173 210.58 225.565 210.188C225.957 209.796 226.153 209.329 226.153 208.788V202.124C226.153 201.583 225.957 201.116 225.565 200.724C225.173 200.332 224.707 200.136 224.165 200.136V199.884C224.837 199.697 225.491 199.501 226.125 199.296C226.667 199.128 227.236 198.951 227.833 198.764C228.449 198.559 228.972 198.372 229.401 198.204V200.78C230.241 199.903 231.128 199.249 232.061 198.82C232.995 198.372 233.853 198.167 234.637 198.204C235.44 198.241 236.103 198.531 236.625 199.072C237.148 199.613 237.409 200.425 237.409 201.508V208.788ZM247.285 209.656C249.152 209.805 250.524 210.253 251.401 211C252.297 211.765 252.745 212.633 252.745 213.604C252.745 214.929 252.167 215.909 251.009 216.544C249.852 217.197 248.303 217.524 246.361 217.524C245.465 217.524 244.635 217.468 243.869 217.356C243.104 217.244 242.441 217.057 241.881 216.796C241.321 216.535 240.883 216.189 240.565 215.76C240.248 215.331 240.089 214.808 240.089 214.192C240.089 213.576 240.295 213.063 240.705 212.652C241.116 212.26 241.583 211.952 242.105 211.728C242.647 211.504 243.179 211.345 243.701 211.252C244.243 211.177 244.635 211.14 244.877 211.14C244.056 211.14 243.393 211.084 242.889 210.972C242.385 210.841 241.984 210.683 241.685 210.496C241.405 210.291 241.209 210.067 241.097 209.824C241.004 209.581 240.957 209.339 240.957 209.096C240.957 208.555 241.2 208.088 241.685 207.696C242.189 207.285 243.085 207.005 244.373 206.856C243.477 206.539 242.731 206.025 242.133 205.316C241.536 204.588 241.237 203.72 241.237 202.712C241.237 202.077 241.368 201.489 241.629 200.948C241.909 200.407 242.283 199.931 242.749 199.52C243.216 199.109 243.767 198.792 244.401 198.568C245.036 198.325 245.717 198.204 246.445 198.204C247.155 198.204 247.808 198.316 248.405 198.54C248.48 197.681 248.704 197.037 249.077 196.608C249.451 196.16 249.852 195.917 250.281 195.88C250.711 195.843 251.103 196.011 251.457 196.384C251.812 196.739 251.989 197.289 251.989 198.036C251.84 197.961 251.597 197.887 251.261 197.812C250.925 197.719 250.58 197.672 250.225 197.672C249.889 197.672 249.572 197.747 249.273 197.896C248.993 198.045 248.816 198.307 248.741 198.68C249.544 199.035 250.207 199.557 250.729 200.248C251.252 200.939 251.513 201.76 251.513 202.712C251.513 203.365 251.383 203.972 251.121 204.532C250.879 205.073 250.524 205.54 250.057 205.932C249.609 206.324 249.077 206.632 248.461 206.856C247.845 207.08 247.173 207.192 246.445 207.192C246.053 207.192 245.605 207.201 245.101 207.22C244.616 207.22 244.149 207.257 243.701 207.332C243.272 207.388 242.908 207.491 242.609 207.64C242.311 207.771 242.161 207.967 242.161 208.228C242.161 208.396 242.208 208.555 242.301 208.704C242.413 208.835 242.647 208.956 243.001 209.068C243.356 209.18 243.869 209.283 244.541 209.376C245.213 209.469 246.128 209.563 247.285 209.656ZM245.325 198.904C244.728 198.904 244.336 199.184 244.149 199.744C243.981 200.304 244.112 201.293 244.541 202.712C244.747 203.421 244.961 204.019 245.185 204.504C245.409 204.989 245.643 205.381 245.885 205.68C246.128 205.979 246.38 206.193 246.641 206.324C246.921 206.455 247.211 206.52 247.509 206.52C247.808 206.52 248.051 206.455 248.237 206.324C248.424 206.193 248.545 205.979 248.601 205.68C248.676 205.381 248.676 204.989 248.601 204.504C248.545 204.019 248.415 203.421 248.209 202.712C247.78 201.293 247.341 200.304 246.893 199.744C246.445 199.184 245.923 198.904 245.325 198.904ZM247.117 217.104C247.827 217.104 248.359 216.955 248.713 216.656C249.087 216.376 249.32 216.021 249.413 215.592C249.507 215.163 249.469 214.687 249.301 214.164C249.133 213.66 248.863 213.193 248.489 212.764C248.116 212.335 247.659 211.971 247.117 211.672C246.576 211.392 245.969 211.252 245.297 211.252C244.756 211.252 244.336 211.392 244.037 211.672C243.757 211.971 243.58 212.335 243.505 212.764C243.431 213.193 243.459 213.66 243.589 214.164C243.72 214.687 243.935 215.163 244.233 215.592C244.551 216.021 244.952 216.376 245.437 216.656C245.923 216.955 246.483 217.104 247.117 217.104Z" fill="#FCB716"/>
</svg>
