<svg width="116" height="30" viewBox="0 0 116 30" fill="none" xmlns="http://www.w3.org/2000/svg">
<path d="M11.8964 29.0201C9.6355 29.0201 7.76535 28.7829 6.28598 28.3084C4.83452 27.8338 3.67614 27.2337 2.81085 26.508C1.97347 25.7543 1.37335 24.9309 1.01048 24.0377C0.675533 23.1166 0.508057 22.2094 0.508057 21.3162C0.508057 20.4509 0.703445 19.6554 1.09422 18.9297C1.51291 18.1761 2.05721 17.5759 2.72711 17.1293C3.42493 16.6827 4.22044 16.4455 5.11365 16.4176C6.03476 16.3617 6.99775 16.599 8.00261 17.1293C7.41644 17.2689 6.94192 17.6318 6.57906 18.2179C6.24411 18.8041 6.03476 19.5019 5.95102 20.3114C5.86729 21.0929 5.90916 21.9303 6.07663 22.8235C6.27202 23.7167 6.60697 24.5401 7.08149 25.2938C7.58392 26.0474 8.23986 26.6755 9.04933 27.1779C9.88671 27.6803 10.8916 27.9315 12.0639 27.9315C13.2641 27.9315 14.2969 27.778 15.1622 27.471C16.0275 27.1639 16.7253 26.7592 17.2557 26.2568C17.8139 25.7543 18.2186 25.1961 18.4699 24.582C18.749 23.9679 18.8885 23.3539 18.8885 22.7398C18.8885 21.5116 18.4699 20.4789 17.6325 19.6415C16.7951 18.8041 15.7484 18.0644 14.4923 17.4224C13.2641 16.7804 11.9104 16.1803 10.431 15.622C8.97955 15.0638 7.62578 14.4218 6.36972 13.6961C5.14156 12.9703 4.10879 12.119 3.27141 11.1421C2.43403 10.1651 2.01534 8.93697 2.01534 7.4576C2.01534 5.72701 2.36425 4.37325 3.06206 3.3963C3.78779 2.41936 4.681 1.69363 5.74168 1.21912C6.80236 0.71669 7.96074 0.409651 9.21681 0.298C10.5008 0.186349 11.6871 0.130524 12.7757 0.130524C14.897 0.130524 16.6555 0.353825 18.0512 0.800429C19.4468 1.21912 20.5214 1.74946 21.2751 2.39145C22.0287 3.03344 22.4753 3.74521 22.6149 4.52677C22.7544 5.28041 22.6428 5.97823 22.2799 6.62022C21.9171 7.26221 21.3169 7.80651 20.4796 8.25311C19.6701 8.6718 18.6652 8.88114 17.465 8.88114C17.7441 8.26706 17.8697 7.52738 17.8418 6.66209C17.8418 5.79679 17.6185 4.97337 17.1719 4.19182C16.7253 3.38235 16.0554 2.69849 15.1622 2.14024C14.269 1.55407 13.1106 1.26099 11.6871 1.26099C10.9613 1.26099 10.3194 1.40055 9.7611 1.67968C9.20285 1.93089 8.74229 2.25189 8.37943 2.64266C8.01656 3.03344 7.73743 3.48004 7.54205 3.98247C7.37457 4.45699 7.29083 4.91754 7.29083 5.36415C7.29083 6.28527 7.52809 7.06682 8.00261 7.70881C8.50503 8.3508 9.14702 8.90906 9.92858 9.38357C10.7101 9.85809 11.6033 10.2768 12.6082 10.6396C13.613 11.0025 14.6458 11.3654 15.7065 11.7282C16.7672 12.0911 17.7999 12.4958 18.8048 12.9424C19.8097 13.3611 20.7029 13.8775 21.4844 14.4916C22.266 15.0778 22.894 15.7895 23.3685 16.6269C23.871 17.4364 24.1222 18.4273 24.1222 19.5996C24.1222 21.0231 23.857 22.3211 23.3267 23.4934C22.7963 24.6378 22.0008 25.6287 20.9401 26.4661C19.9074 27.2756 18.6234 27.9036 17.0882 28.3502C15.5809 28.7968 13.8503 29.0201 11.8964 29.0201Z" fill="#FCB716"/>
<path d="M36.2858 28.6433H25.1486V28.3084C25.9581 28.3084 26.6559 28.0153 27.2421 27.4291C27.8282 26.8429 28.1213 26.1312 28.1213 25.2938V3.85687C28.1213 3.0474 27.8282 2.34958 27.2421 1.76342C26.6559 1.17725 25.9581 0.884166 25.1486 0.884166V0.507345H36.2858V0.884166C35.4763 0.884166 34.7785 1.17725 34.1923 1.76342C33.6061 2.34958 33.3131 3.0474 33.3131 3.85687V25.3357C33.3131 26.1451 33.6061 26.8429 34.1923 27.4291C34.7785 28.0153 35.4763 28.3084 36.2858 28.3084V28.6433Z" fill="#FCB716"/>
<path d="M54.0117 28.3084C54.8212 28.3084 55.3376 28.0153 55.5609 27.4291C55.7842 26.8429 55.6446 26.1312 55.1422 25.2938L49.5317 16.3338L43.9213 25.0844C43.363 25.9776 43.1816 26.7452 43.377 27.3872C43.6003 28.0013 44.1585 28.3084 45.0517 28.3084V28.6433H37.306V28.3084C37.7526 28.3084 38.2271 28.2246 38.7295 28.0571C39.2599 27.8897 39.7763 27.6664 40.2787 27.3872C40.7811 27.0802 41.2417 26.7313 41.6604 26.3405C42.107 25.9497 42.4698 25.531 42.749 25.0844L48.9874 15.4127L41.786 3.85687C41.5348 3.43817 41.1998 3.06135 40.7811 2.7264C40.3903 2.36354 39.9577 2.04254 39.4832 1.76342C39.0366 1.48429 38.5621 1.27494 38.0596 1.13538C37.5851 0.967904 37.1385 0.884166 36.7198 0.884166V0.507345H48.4431V0.884166C47.6337 0.884166 47.1173 1.17725 46.894 1.76342C46.6707 2.34958 46.8102 3.0474 47.3127 3.85687L51.7927 11.0583L56.2308 4.06621C56.789 3.173 56.9565 2.41936 56.7332 1.80528C56.5378 1.19121 55.9935 0.884166 55.1003 0.884166V0.507345H62.8879V0.884166C62.4413 0.884166 61.9529 0.967904 61.4225 1.13538C60.8922 1.30286 60.3758 1.54011 59.8734 1.84715C59.3709 2.12628 58.8964 2.46123 58.4498 2.85201C58.0311 3.21487 57.6822 3.61961 57.4031 4.06621L52.337 11.9376L60.6689 25.3357C60.9759 25.7264 61.3388 26.1033 61.7575 26.4661C62.2041 26.829 62.6646 27.15 63.1392 27.4291C63.6137 27.6803 64.0882 27.8897 64.5627 28.0571C65.0372 28.2246 65.4838 28.3084 65.9025 28.3084H65.9444V28.6433H54.0117V28.3084Z" fill="#FCB716"/>
<path d="M65.4076 9.3417L64.319 9.29983L66.0356 0.507345H87.7238L89.4404 9.29983L88.3518 9.3417L88.2681 8.92301C88.0168 7.86233 87.6121 6.88539 87.0539 5.99218C86.5235 5.09898 85.8676 4.33138 85.086 3.68939C84.3324 3.01949 83.4671 2.47519 82.4901 2.0565C81.5411 1.63781 80.5363 1.38659 79.4756 1.30286L79.5174 25.2938C79.5174 26.1312 79.7966 26.8429 80.3548 27.4291C80.941 28.0153 81.6528 28.3084 82.4901 28.3084V28.6433H71.3111V28.3084C72.1206 28.3084 72.8184 28.0153 73.4046 27.4291C73.9907 26.8429 74.2838 26.1312 74.2838 25.2938V1.30286C73.2231 1.38659 72.2043 1.63781 71.2274 2.0565C70.2784 2.44727 69.4131 2.97762 68.6315 3.64752C67.8779 4.31742 67.2219 5.09898 66.6637 5.99218C66.1333 6.88539 65.7425 7.86233 65.4913 8.92301L65.4076 9.3417Z" fill="#FCB716"/>
<path d="M101.053 28.6433H89.8738V28.3084C90.6833 28.3084 91.3811 28.0153 91.9672 27.4291C92.5534 26.8429 92.8465 26.1312 92.8465 25.2938V3.85687C92.8465 3.0474 92.5534 2.34958 91.9672 1.76342C91.3811 1.17725 90.6833 0.884166 89.8738 0.884166V0.507345H101.053V0.884166H101.011C100.201 0.884166 99.5037 1.17725 98.9175 1.76342C98.3313 2.34958 98.0382 3.0474 98.0382 3.85687V11.5608H107.794V3.85687C107.794 3.0474 107.501 2.34958 106.914 1.76342C106.356 1.17725 105.658 0.884166 104.821 0.884166V0.507345H116V0.884166C115.163 0.884166 114.451 1.17725 113.865 1.76342C113.306 2.34958 113.027 3.0474 113.027 3.85687V25.3357C113.027 26.1451 113.32 26.8429 113.907 27.4291C114.493 28.0153 115.191 28.3084 116 28.3084V28.6433H104.821V28.3084C105.658 28.3084 106.356 28.0153 106.914 27.4291C107.501 26.8429 107.794 26.1312 107.794 25.2938V12.2307H98.0382V25.3357C98.0382 26.1451 98.3313 26.8429 98.9175 27.4291C99.5037 28.0153 100.215 28.3084 101.053 28.3084V28.6433Z" fill="#FCB716"/>
</svg>
