<svg width="116" height="29" viewBox="0 0 116 29" fill="none" xmlns="http://www.w3.org/2000/svg">
<path d="M11.3884 28.8896C9.12744 28.8896 7.25729 28.6523 5.77792 28.1778C4.32646 27.7033 3.16809 27.1032 2.30279 26.3775C1.46541 25.6238 0.865292 24.8004 0.502428 23.9072C0.167476 22.9861 0 22.0789 0 21.1857C0 20.3204 0.195389 19.5249 0.586166 18.7992C1.00486 18.0455 1.54915 17.4454 2.21906 16.9988C2.91687 16.5522 3.71238 16.3149 4.60559 16.287C5.52671 16.2312 6.48969 16.4685 7.49455 16.9988C6.90838 17.1384 6.43387 17.5012 6.071 18.0874C5.73605 18.6736 5.52671 19.3714 5.44297 20.1809C5.35923 20.9624 5.4011 21.7998 5.56858 22.693C5.76396 23.5862 6.09892 24.4096 6.57343 25.1633C7.07586 25.9169 7.73181 26.5449 8.54127 27.0474C9.37865 27.5498 10.3835 27.801 11.5558 27.801C12.7561 27.801 13.7889 27.6475 14.6541 27.3404C15.5194 27.0334 16.2173 26.6287 16.7476 26.1262C17.3058 25.6238 17.7106 25.0656 17.9618 24.4515C18.2409 23.8374 18.3805 23.2233 18.3805 22.6093C18.3805 21.3811 17.9618 20.3483 17.1244 19.5109C16.287 18.6736 15.2403 17.9339 13.9842 17.2919C12.7561 16.6499 11.4023 16.0498 9.92295 15.4915C8.47149 14.9333 7.11773 14.2913 5.86166 13.5656C4.6335 12.8398 3.60073 11.9885 2.76335 11.0115C1.92597 10.0346 1.50728 8.80644 1.50728 7.32707C1.50728 5.59649 1.85619 4.24272 2.55401 3.26578C3.27974 2.28884 4.17294 1.56311 5.23362 1.08859C6.2943 0.586167 7.45268 0.279127 8.70875 0.167476C9.99273 0.0558254 11.179 0 12.2676 0C14.389 0 16.1475 0.223302 17.5431 0.669905C18.9387 1.08859 20.0134 1.61893 20.767 2.26093C21.5207 2.90292 21.9673 3.61469 22.1068 4.39624C22.2464 5.14989 22.1347 5.8477 21.7719 6.48969C21.409 7.13168 20.8089 7.67598 19.9715 8.12258C19.162 8.54127 18.1572 8.75062 16.9569 8.75062C17.2361 8.13654 17.3617 7.39686 17.3338 6.53156C17.3338 5.66627 17.1105 4.84285 16.6639 4.06129C16.2173 3.25182 15.5473 2.56797 14.6541 2.00971C13.7609 1.42355 12.6026 1.13046 11.179 1.13046C10.4533 1.13046 9.8113 1.27003 9.25305 1.54915C8.69479 1.80037 8.23423 2.12136 7.87137 2.51214C7.5085 2.90292 7.22938 3.34952 7.03399 3.85195C6.86651 4.32646 6.78278 4.78702 6.78278 5.23362C6.78278 6.15474 7.02003 6.9363 7.49455 7.57829C7.99698 8.22028 8.63897 8.77853 9.42052 9.25305C10.2021 9.72756 11.0953 10.1463 12.1001 10.5091C13.105 10.872 14.1378 11.2348 15.1984 11.5977C16.2591 11.9606 17.2919 12.3653 18.2967 12.8119C19.3016 13.2306 20.1948 13.747 20.9764 14.3611C21.7579 14.9472 22.386 15.659 22.8605 16.4964C23.3629 17.3058 23.6141 18.2967 23.6141 19.4691C23.6141 20.8926 23.3489 22.1906 22.8186 23.3629C22.2883 24.5073 21.4927 25.4982 20.4321 26.3356C19.3993 27.1451 18.1153 27.7731 16.5801 28.2197C15.0728 28.6663 13.3423 28.8896 11.3884 28.8896Z" fill="#EFE3C4"/>
<path d="M35.7777 28.5128H24.6405V28.1778C25.45 28.1778 26.1478 27.8847 26.734 27.2986C27.3202 26.7124 27.6132 26.0006 27.6132 25.1633V3.72634C27.6132 2.91687 27.3202 2.21906 26.734 1.63289C26.1478 1.04673 25.45 0.753642 24.6405 0.753642V0.376821H35.7777V0.753642C34.9682 0.753642 34.2704 1.04673 33.6843 1.63289C33.0981 2.21906 32.805 2.91687 32.805 3.72634V25.2051C32.805 26.0146 33.0981 26.7124 33.6843 27.2986C34.2704 27.8847 34.9682 28.1778 35.7777 28.1778V28.5128Z" fill="#EFE3C4"/>
<path d="M53.5037 28.1778C54.3131 28.1778 54.8295 27.8847 55.0528 27.2986C55.2761 26.7124 55.1365 26.0006 54.6341 25.1633L49.0237 16.2033L43.4132 24.9539C42.855 25.8471 42.6735 26.6147 42.8689 27.2567C43.0922 27.8708 43.6505 28.1778 44.5437 28.1778V28.5128H36.7979V28.1778C37.2445 28.1778 37.719 28.0941 38.2215 27.9266C38.7518 27.7591 39.2682 27.5358 39.7706 27.2567C40.2731 26.9497 40.7336 26.6008 41.1523 26.21C41.5989 25.8192 41.9618 25.4005 42.2409 24.9539L48.4794 15.2822L41.2779 3.72634C41.0267 3.30765 40.6917 2.93083 40.2731 2.59588C39.8823 2.23301 39.4496 1.91202 38.9751 1.63289C38.5285 1.35377 38.054 1.14442 37.5516 1.00486C37.0771 0.837381 36.6305 0.753642 36.2118 0.753642V0.376821H47.9351V0.753642C47.1256 0.753642 46.6092 1.04673 46.3859 1.63289C46.1626 2.21906 46.3022 2.91687 46.8046 3.72634L51.2846 10.9278L55.7227 3.93569C56.281 3.04248 56.4484 2.28884 56.2251 1.67476C56.0298 1.06068 55.4855 0.753642 54.5923 0.753642V0.376821H62.3799V0.753642C61.9333 0.753642 61.4448 0.837381 60.9145 1.00486C60.3841 1.17233 59.8677 1.40959 59.3653 1.71663C58.8629 1.99575 58.3884 2.33071 57.9418 2.72148C57.5231 3.08435 57.1742 3.48908 56.895 3.93569L51.8289 11.8071L60.1608 25.2051C60.4679 25.5959 60.8307 25.9727 61.2494 26.3356C61.696 26.6985 62.1566 27.0195 62.6311 27.2986C63.1056 27.5498 63.5801 27.7591 64.0546 27.9266C64.5292 28.0941 64.9758 28.1778 65.3944 28.1778H65.4363V28.5128H53.5037V28.1778Z" fill="#EFE3C4"/>
<path d="M64.8995 9.21118L63.8109 9.16931L65.5276 0.376821H87.2157L88.9323 9.16931L87.8437 9.21118L87.76 8.79249C87.5088 7.73181 87.1041 6.75486 86.5458 5.86166C86.0155 4.96845 85.3595 4.20086 84.578 3.55887C83.8243 2.88896 82.959 2.34466 81.9821 1.92597C81.0331 1.50728 80.0282 1.25607 78.9675 1.17233L79.0094 25.1633C79.0094 26.0006 79.2885 26.7124 79.8468 27.2986C80.4329 27.8847 81.1447 28.1778 81.9821 28.1778V28.5128H70.8031V28.1778C71.6125 28.1778 72.3104 27.8847 72.8965 27.2986C73.4827 26.7124 73.7758 26.0006 73.7758 25.1633V1.17233C72.7151 1.25607 71.6963 1.50728 70.7193 1.92597C69.7703 2.31675 68.905 2.84709 68.1235 3.517C67.3698 4.1869 66.7139 4.96845 66.1556 5.86166C65.6253 6.75486 65.2345 7.73181 64.9833 8.79249L64.8995 9.21118Z" fill="#EFE3C4"/>
<path d="M100.545 28.5128H89.3657V28.1778C90.1752 28.1778 90.873 27.8847 91.4592 27.2986C92.0454 26.7124 92.3384 26.0006 92.3384 25.1633V3.72634C92.3384 2.91687 92.0454 2.21906 91.4592 1.63289C90.873 1.04673 90.1752 0.753642 89.3657 0.753642V0.376821H100.545V0.753642H100.503C99.6934 0.753642 98.9956 1.04673 98.4094 1.63289C97.8233 2.21906 97.5302 2.91687 97.5302 3.72634V11.4302H107.286V3.72634C107.286 2.91687 106.993 2.21906 106.406 1.63289C105.848 1.04673 105.15 0.753642 104.313 0.753642V0.376821H115.492V0.753642C114.655 0.753642 113.943 1.04673 113.357 1.63289C112.798 2.21906 112.519 2.91687 112.519 3.72634V25.2051C112.519 26.0146 112.812 26.7124 113.399 27.2986C113.985 27.8847 114.683 28.1778 115.492 28.1778V28.5128H104.313V28.1778C105.15 28.1778 105.848 27.8847 106.406 27.2986C106.993 26.7124 107.286 26.0006 107.286 25.1633V12.1001H97.5302V25.2051C97.5302 26.0146 97.8233 26.7124 98.4094 27.2986C98.9956 27.8847 99.7074 28.1778 100.545 28.1778V28.5128Z" fill="#EFE3C4"/>
</svg>
